<?xml version="1.0" encoding="UTF-8" standalone="no"?>
<!-- Created with Inkscape (http://www.inkscape.org/) -->

<svg
   xmlns:dc="http://purl.org/dc/elements/1.1/"
   xmlns:cc="http://creativecommons.org/ns#"
   xmlns:rdf="http://www.w3.org/1999/02/22-rdf-syntax-ns#"
   xmlns:svg="http://www.w3.org/2000/svg"
   xmlns="http://www.w3.org/2000/svg"
   xmlns:sodipodi="http://sodipodi.sourceforge.net/DTD/sodipodi-0.dtd"
   xmlns:inkscape="http://www.inkscape.org/namespaces/inkscape"
   id="svg2"
   version="1.1"
   inkscape:version="0.92.2 5c3e80d, 2017-08-06"
   width="100"
   height="100"
   xml:space="preserve"
   sodipodi:docname="LOGO_UL.svg"
   inkscape:export-filename="/Users/florent/Desktop/LOGO_UL.png"
   inkscape:export-xdpi="192"
   inkscape:export-ydpi="192"><metadata
     id="metadata8"><rdf:RDF><cc:Work
         rdf:about=""><dc:format>image/svg+xml</dc:format><dc:type
           rdf:resource="http://purl.org/dc/dcmitype/StillImage" /><dc:title></dc:title></cc:Work></rdf:RDF></metadata><defs
     id="defs6"><clipPath
       clipPathUnits="userSpaceOnUse"
       id="clipPath16"><path
         d="M 0,841.89 H 1190.55 V 0 H 0 Z"
         id="path18"
         inkscape:connector-curvature="0" /></clipPath></defs><sodipodi:namedview
     pagecolor="#ffffff"
     bordercolor="#666666"
     borderopacity="1"
     objecttolerance="10"
     gridtolerance="10"
     guidetolerance="10"
     inkscape:pageopacity="0"
     inkscape:pageshadow="2"
     inkscape:window-width="1680"
     inkscape:window-height="1034"
     id="namedview4"
     showgrid="false"
     inkscape:zoom="6.9791439"
     inkscape:cx="49.912104"
     inkscape:cy="50.101669"
     inkscape:window-x="0"
     inkscape:window-y="16"
     inkscape:window-maximized="0"
     inkscape:current-layer="g14" /><g
     id="g10"
     inkscape:groupmode="layer"
     inkscape:label="LOGO_UL"
     transform="matrix(1.25,0,0,-1.25,0,99.999951)"><g
       id="g12"><g
         id="g14"
         clip-path="url(#clipPath16)"><g
           id="g60"
           transform="matrix(1.6317543,0,0,1.6317543,-861.63123,-646.87788)"
           inkscape:export-xdpi="198.02"
           inkscape:export-ydpi="198.02"><g
             transform="translate(576.3218,420.9434)"
             id="g94"><path
               inkscape:connector-curvature="0"
               id="path96"
               style="fill:#2d2c2e;fill-opacity:1;fill-rule:nonzero;stroke:none"
               d="m 0,0 c 0,-13.125 -10.642,-23.768 -23.768,-23.768 -13.128,0 -23.769,10.643 -23.769,23.768 0,13.127 10.641,23.77 23.769,23.77 C -10.642,23.77 0,13.127 0,0" /></g><g
             transform="translate(552.1968,413.9941)"
             id="g98"><path
               inkscape:connector-curvature="0"
               id="path100"
               style="fill:#ffffff;fill-opacity:1;fill-rule:nonzero;stroke:none"
               d="m 0,0 c -0.53,-0.289 -1.185,-0.443 -1.967,-0.443 -2.277,0 -3.689,0.881 -3.689,5.277 v 14.118 h -7.34 V 4.732 c 0,-7.529 4.02,-11.847 11.029,-11.847 2.126,0 3.743,0.351 5.337,1.128 C 1.772,-4.464 0.625,-2.452 0,0" /></g><g
             transform="translate(561.3638,418.8311)"
             id="g102"><path
               inkscape:connector-curvature="0"
               id="path104"
               style="fill:#fff04c;fill-opacity:1;fill-rule:nonzero;stroke:none"
               d="M 0,0 V 14.118 H -7.34 V -0.103 c 0,-7.527 4.022,-11.846 11.029,-11.846 h 2.909 v 6.671 H 3.689 C 1.412,-5.278 0,-4.396 0,0" /></g></g></g></g></g></svg>